<?xml version="1.0" encoding="UTF-8" standalone="no"?>
<!DOCTYPE svg PUBLIC "-//W3C//DTD SVG 1.1//EN" "http://www.w3.org/Graphics/SVG/1.1/DTD/svg11.dtd">
<svg version="1.1"
  xmlns="http://www.w3.org/2000/svg"
  xmlns:xlink="http://www.w3.org/1999/xlink" preserveAspectRatio="xMidYMid meet" viewBox="0 0 327.16 57.99" width="327.16" height="57.99">
  <defs>
    <path d="M308.69 1.72C307.64 2.77 307.04 4.25 306.99 5.91C306.23 5.69 305.47 5.6 304.75 5.63C302.33 5.76 300.29 7.41 299.47 9.93C298.92 11.62 299.01 13.3 299.72 14.69C300.4 16.02 301.62 17.04 303.19 17.61C302.25 18.99 301.86 20.53 302.1 22.01C302.34 23.55 303.26 24.96 304.69 26C306.12 27.04 307.75 27.48 309.3 27.23C310.77 27 312.11 26.15 313.14 24.84C314.16 26.15 315.51 27 316.98 27.23C318.52 27.48 320.15 27.04 321.58 26C323.01 24.96 323.93 23.55 324.18 22.01C324.41 20.53 324.02 18.99 323.09 17.61C324.65 17.04 325.88 16.02 326.55 14.69C327.26 13.3 327.35 11.62 326.81 9.93C325.99 7.41 323.94 5.76 321.53 5.63C320.8 5.6 320.05 5.7 319.29 5.91C319.23 4.25 318.64 2.77 317.58 1.72C316.48 0.61 314.91 0 313.14 0C311.37 0 309.8 0.61 308.69 1.72ZM318.27 14.38C318.27 17.2 315.96 19.51 313.14 19.51C310.31 19.51 308 17.2 308 14.38C308 11.55 310.31 9.24 313.14 9.24C315.96 9.24 318.27 11.55 318.27 14.38ZM310.06 14.38C310.06 16.09 311.42 17.46 313.14 17.46C314.85 17.46 316.22 16.09 316.22 14.38C316.22 12.66 314.85 11.3 313.14 11.3C311.42 11.3 310.06 12.66 310.06 14.38Z" id="b63Cx1RJ85"></path>
    <path d="M0 58C8.48 58 13.19 58 14.13 58C18.35 58 21.69 56.5 24.14 53.51C26.59 50.51 27.82 46.64 27.82 41.88C27.82 40.6 27.66 39.14 27.34 37.5C27.02 35.86 26.48 34.26 25.72 32.72C24.96 31.17 23.93 29.77 22.63 28.52C21.33 27.27 19.65 26.4 17.59 25.91C19.65 24.63 21.15 22.93 22.08 20.79C23.01 18.66 23.48 16.42 23.48 14.06C23.48 9.55 22.23 6.08 19.72 3.65C17.22 1.22 13.81 0 9.5 0C8.86 0 5.7 0 0 0L0 22.89L2.58 22.89L2.5 3.02C6.83 3.02 9.24 3.02 9.72 3.02C13.79 3.02 16.66 4.09 18.33 6.22C19.99 8.36 20.83 10.97 20.83 14.06C20.83 17.4 20.07 19.98 18.55 21.82C17.03 23.66 14.94 24.58 12.29 24.58C11.65 24.58 8.44 24.58 2.65 24.58L4.27 27.82C10.19 27.82 13.47 27.82 14.13 27.82C16.14 27.82 17.86 28.28 19.28 29.18C20.71 30.09 21.87 31.23 22.78 32.61C23.69 33.98 24.36 35.53 24.8 37.24C25.24 38.96 25.47 40.63 25.47 42.25C25.47 43.82 25.24 45.36 24.8 46.88C24.36 48.41 23.7 49.77 22.82 50.97C21.93 52.17 20.78 53.14 19.36 53.88C17.93 54.61 16.24 54.98 14.28 54.98C13.49 54.98 9.57 54.98 2.5 54.98L2.58 24.66L0 24.66L0 58ZM34.81 0L32.38 0L32.38 43.5L34.81 43.5L34.81 0ZM54.61 55.49L34.81 55.49L34.81 48.28L32.38 48.28L32.38 58L54.61 58L54.61 55.49ZM110.76 49.39C113.61 46.59 115.76 43.57 117.2 40.33C118.65 37.1 119.37 33.42 119.37 29.29C119.37 21.1 116.5 14.18 110.76 8.54C105.02 2.95 97.93 0.13 89.49 0.08C84.29 0.13 79.41 1.43 74.85 3.98C70.38 6.58 66.83 10.18 64.18 14.8C64.39 14.91 66.1 15.86 66.31 15.97C68.72 11.71 71.98 8.39 76.1 6.04C80.17 3.68 84.64 2.48 89.49 2.43C97.34 2.48 103.87 5.11 109.07 10.31C114.27 15.41 116.9 21.74 116.95 29.29C116.95 33.07 116.28 36.45 114.96 39.41C113.63 42.38 111.7 45.17 109.14 47.77C103.89 53.02 97.49 55.64 89.94 55.64C85.23 55.64 80.96 54.64 77.13 52.62C77.02 52.84 76.14 54.55 76.03 54.76C80.2 56.92 84.83 58 89.94 58C98.08 58 105.02 55.13 110.76 49.39ZM143.15 31.06C145.21 32.97 146.83 35.02 148 37.21C149.18 39.39 149.77 41.59 149.77 43.79C149.77 43.89 149.77 44.65 149.77 44.75C149.82 46.32 149.62 47.72 149.18 48.94C149.45 48.94 151.63 48.94 151.9 48.94C152.3 47.62 152.47 46.25 152.42 44.82C152.42 44.72 152.42 43.9 152.42 43.79C152.42 41.14 151.74 38.62 150.39 36.21C149.05 33.81 147.17 31.45 144.76 29.15C144.13 28.55 139.07 23.78 138.44 23.19C136.42 21.27 134.77 19.48 133.47 17.81C132.17 16.15 131.52 14.06 131.52 11.56C131.52 11.51 131.52 11.16 131.52 11.12C131.52 8.52 132.24 6.42 133.69 4.82C135.14 3.23 137.16 2.43 139.76 2.43C141.62 2.43 143.15 2.71 144.32 3.28C145.5 3.84 146.7 4.69 147.93 5.82C148.1 5.63 149.45 4.1 149.62 3.9C148.25 2.63 146.84 1.67 145.39 1.03C143.94 0.4 142.07 0.08 139.76 0.08C136.77 0.08 134.23 1.05 132.14 2.98C130.06 4.92 129.01 7.61 129.01 11.04C129.01 11.1 129.01 11.57 129.01 11.63C129.01 14.43 129.71 16.82 131.11 18.81C132.51 20.79 134.34 22.84 136.6 24.95C136.6 24.95 142.49 30.45 143.15 31.06ZM147.86 51.74C146.14 54.24 143.39 55.52 139.61 55.57C138.34 55.57 137.18 55.42 136.15 55.13C136.15 55.38 136.15 57.45 136.15 57.7C137.18 57.9 138.34 58 139.61 58C142.26 58 144.54 57.46 146.46 56.38C148.37 55.3 149.84 53.75 150.87 51.74C150.87 51.74 148.16 51.74 147.86 51.74ZM176.19 31.06C178.25 32.97 179.87 35.02 181.05 37.21C182.22 39.39 182.81 41.59 182.81 43.79C182.81 43.89 182.81 44.65 182.81 44.75C182.86 46.32 182.67 47.72 182.22 48.94C182.5 48.94 184.68 48.94 184.95 48.94C185.34 47.62 185.51 46.25 185.46 44.82C185.46 44.72 185.46 43.9 185.46 43.79C185.46 41.14 184.79 38.62 183.44 36.21C182.09 33.81 180.21 31.45 177.81 29.15C177.18 28.55 172.11 23.78 171.48 23.19C169.47 21.27 167.81 19.48 166.51 17.81C165.21 16.15 164.56 14.06 164.56 11.56C164.56 11.51 164.56 11.16 164.56 11.12C164.56 8.52 165.29 6.42 166.73 4.82C168.18 3.23 170.2 2.43 172.8 2.43C174.67 2.43 176.19 2.71 177.37 3.28C178.54 3.84 179.75 4.69 180.97 5.82C181.14 5.63 182.5 4.1 182.67 3.9C181.29 2.63 179.88 1.67 178.43 1.03C176.99 0.4 175.11 0.08 172.8 0.08C169.81 0.08 167.27 1.05 165.19 2.98C163.1 4.92 162.06 7.61 162.06 11.04C162.06 11.1 162.06 11.57 162.06 11.63C162.06 14.43 162.76 16.82 164.16 18.81C165.56 20.79 167.38 22.84 169.64 24.95C169.64 24.95 175.53 30.45 176.19 31.06ZM180.9 51.74C179.18 54.24 176.44 55.52 172.66 55.57C171.38 55.57 170.23 55.42 169.2 55.13C169.2 55.38 169.2 57.45 169.2 57.7C170.23 57.9 171.38 58 172.66 58C175.31 58 177.59 57.46 179.5 56.38C181.42 55.3 182.89 53.75 183.92 51.74C183.92 51.74 181.2 51.74 180.9 51.74ZM241.62 49.39C244.46 46.59 246.61 43.57 248.06 40.33C249.5 37.1 250.23 33.42 250.23 29.29C250.23 21.1 247.36 14.18 241.62 8.54C235.88 2.95 228.79 0.13 220.35 0.08C215.15 0.13 210.26 1.43 205.7 3.98C201.24 6.58 197.68 10.18 195.03 14.8C195.24 14.91 196.95 15.86 197.16 15.97C199.57 11.71 202.83 8.39 206.95 6.04C211.03 3.68 215.49 2.48 220.35 2.43C228.2 2.48 234.72 5.11 239.92 10.31C245.12 15.41 247.75 21.74 247.8 29.29C247.8 33.07 247.14 36.45 245.81 39.41C244.49 42.38 242.55 45.17 240 47.77C234.75 53.02 228.35 55.64 220.79 55.64C216.08 55.64 211.81 54.64 207.98 52.62C207.87 52.84 206.99 54.55 206.88 54.76C211.05 56.92 215.69 58 220.79 58C228.93 58 235.88 55.13 241.62 49.39ZM293.21 0L290.78 0L276.5 26.57L267.01 8.91L264.87 10.09L276.5 31.65L290.85 4.86L290.85 58L293.21 58L293.21 0ZM262.15 5.01L262.74 6.11L264.87 5.01L262.15 0L259.79 0L259.79 58L262.15 58L262.15 5.01Z" id="e7FvWPXKM"></path>
  </defs>
  <g>
    <g>
      <g>
        <use xlink:href="#b63Cx1RJ85" opacity="1" fill="#ec275f" fill-opacity="1"></use>
        <g>
          <use xlink:href="#b63Cx1RJ85" opacity="1" fill-opacity="0" stroke="#000000" stroke-width="1" stroke-opacity="0"></use>
        </g>
      </g>
      <g>
        <use xlink:href="#e7FvWPXKM" opacity="1" fill="#111111" fill-opacity="1"></use>
        <g>
          <use xlink:href="#e7FvWPXKM" opacity="1" fill-opacity="0" stroke="#000000" stroke-width="1" stroke-opacity="0"></use>
        </g>
      </g>
    </g>
  </g>
</svg>
